<?xml version="1.0" standalone="no"?>
<!DOCTYPE svg PUBLIC "-//W3C//DTD SVG 20010904//EN"
 "http://www.w3.org/TR/2001/REC-SVG-20010904/DTD/svg10.dtd">
<svg version="1.0" xmlns="http://www.w3.org/2000/svg"
 width="225.000000pt" height="225.000000pt" viewBox="0 0 225.000000 225.000000"
 preserveAspectRatio="xMidYMid meet">
<metadata>
Created by potrace 1.14, written by Peter Selinger 2001-2017
</metadata>
<g transform="translate(0.000000,225.000000) scale(0.100000,-0.100000)"
fill="#000000" stroke="none">
<path d="M458 2183 c-30 -8 -50 -51 -46 -101 l3 -47 -104 -8 c-57 -4 -129 -16
-160 -26 -35 -11 -74 -16 -104 -13 -37 3 -47 1 -47 -11 0 -25 100 -29 164 -7
32 12 100 22 172 27 105 7 119 10 122 27 2 10 -2 29 -8 42 -17 30 -5 72 24 85
25 12 62 -2 101 -38 70 -63 120 -93 157 -93 38 0 73 -16 114 -52 11 -10 39
-20 61 -22 22 -2 51 -11 64 -20 29 -20 53 -21 69 -1 6 8 37 31 67 51 52 34 62
37 147 41 84 4 326 -20 349 -34 6 -3 96 -7 200 -9 292 -4 298 -9 300 -237 2
-187 -15 -248 -75 -282 -20 -11 -52 -33 -72 -48 -21 -18 -52 -31 -78 -34 -24
-3 -49 -10 -56 -16 -17 -13 -51 -89 -57 -125 -8 -51 -16 -247 -15 -377 1 -86
-4 -151 -14 -188 -24 -90 -85 -170 -195 -254 -9 -7 -28 -13 -42 -13 -31 0
-146 39 -181 62 -32 21 -137 151 -160 198 -19 37 -65 182 -93 292 -19 73 -42
93 -74 64 -9 -8 -37 -22 -61 -31 -24 -9 -47 -20 -51 -26 -4 -6 -5 -56 -3 -111
2 -82 6 -104 22 -122 10 -11 27 -35 37 -53 10 -18 22 -30 27 -27 4 3 8 -1 8
-8 0 -7 16 -36 36 -63 20 -28 48 -75 63 -105 38 -79 53 -98 86 -105 57 -13 80
-27 110 -66 17 -22 37 -49 47 -59 9 -10 19 -27 23 -39 3 -12 10 -21 15 -21 13
0 91 -160 84 -171 -3 -5 2 -9 10 -9 36 0 4 89 -77 210 -85 129 -124 169 -169
176 -49 8 -63 23 -113 116 -21 40 -63 107 -94 148 -79 104 -81 111 -81 211 0
78 2 89 18 89 9 0 30 7 46 15 16 9 35 14 41 11 7 -2 20 -33 29 -68 55 -199 91
-287 141 -343 15 -16 38 -47 53 -68 14 -21 44 -49 67 -62 50 -30 157 -65 197
-65 67 0 215 141 243 230 4 14 12 31 18 38 6 8 14 104 18 235 11 321 15 378
33 419 14 33 21 38 72 49 31 7 71 25 92 41 20 16 53 38 73 50 63 35 80 96 84
298 4 166 -8 202 -78 244 -45 26 -51 27 -239 31 -125 2 -219 10 -268 20 -120
26 -313 31 -384 11 -32 -10 -63 -21 -70 -26 -80 -66 -76 -64 -110 -52 -18 7
-47 12 -65 12 -22 0 -45 10 -70 30 -20 17 -41 35 -48 40 -6 5 -32 10 -58 11
-40 2 -57 10 -104 48 -111 91 -128 99 -183 84z"/>
<path d="M545 2018 l45 -73 -197 -6 c-175 -4 -202 -7 -236 -26 -28 -16 -48
-19 -84 -15 -33 3 -44 2 -39 -7 4 -6 14 -11 22 -11 27 0 9 -24 -24 -34 l-32
-9 0 -918 0 -919 282 0 282 0 -29 30 c-28 29 -71 60 -230 167 -81 55 -104 81
-105 119 0 39 64 77 148 88 48 6 103 24 184 59 15 6 35 26 45 44 31 58 43 48
126 -108 29 -56 129 -182 165 -208 l25 -18 -26 -35 c-27 -35 -35 -82 -17 -93
6 -3 10 -15 10 -26 0 -18 9 -19 264 -19 l265 0 -26 58 c-14 31 -34 66 -44 78
-11 11 -19 24 -19 28 0 9 -45 69 -86 114 -29 32 -34 34 -84 31 -52 -4 -54 -3
-62 27 -15 58 -90 188 -165 285 l-74 97 -5 124 c-3 67 -6 134 -7 148 -2 23 3
25 61 36 63 11 73 17 158 97 48 44 44 48 64 -66 7 -37 18 -73 25 -80 6 -7 15
-25 19 -41 5 -21 10 -26 18 -18 8 8 8 18 2 33 -5 11 -7 52 -3 92 4 40 3 76 -2
82 -5 5 -9 18 -9 30 0 11 -7 38 -15 60 -8 22 -14 49 -14 60 0 18 1 18 11 -3 7
-13 17 -21 25 -18 9 4 13 -5 13 -29 0 -47 21 -113 39 -120 7 -3 26 1 42 9 28
14 29 14 35 -12 12 -58 68 -207 81 -215 17 -10 33 -42 39 -75 3 -15 12 -40 20
-56 8 -16 14 -35 14 -43 0 -10 10 -13 33 -11 19 2 31 8 29 16 -1 6 3 12 9 12
7 0 5 10 -5 25 -19 29 -21 51 -3 58 9 4 9 6 -1 6 -7 1 -32 14 -56 30 -32 22
-51 48 -83 113 -43 85 -56 138 -37 145 6 2 28 -8 49 -22 l38 -26 26 25 c15 14
34 26 43 26 9 0 20 5 24 11 4 8 12 2 21 -15 16 -30 19 -31 66 -11 33 14 35 17
30 49 -4 27 -1 36 15 45 19 10 20 8 15 -29 -3 -24 -2 -40 4 -40 13 0 31 45 35
85 2 24 -1 29 -14 27 -10 -2 -18 2 -18 8 0 5 9 10 19 10 15 0 29 20 57 78 20
42 44 85 51 94 26 30 12 50 -46 65 -40 10 -63 11 -84 3 -38 -13 -37 -13 -37 8
0 21 29 52 48 52 7 0 12 -9 12 -20 0 -26 29 -26 56 -1 30 28 63 36 70 17 3 -9
13 -16 21 -16 9 0 24 -9 33 -20 14 -16 25 -19 51 -14 19 3 49 7 66 8 18 1 37
6 43 12 32 32 41 264 13 318 -9 17 -19 38 -23 46 -8 18 -110 27 -110 11 0 -6
5 -11 10 -11 6 0 10 -5 10 -11 0 -7 -13 -9 -37 -5 -60 11 -73 16 -73 31 0 10
-25 13 -113 11 -74 0 -119 3 -128 11 -24 20 -128 33 -260 33 -118 0 -130 -2
-173 -26 -26 -14 -53 -38 -60 -53 -8 -15 -26 -33 -40 -41 -24 -12 -28 -11 -56
15 -17 16 -31 26 -31 22 -1 -4 -2 -12 -3 -19 -1 -15 -23 -22 -31 -9 -3 6 -14
11 -23 11 -9 1 -30 18 -47 40 -26 33 -47 49 -89 69 -5 2 1 -11 13 -28 13 -18
21 -35 18 -38 -14 -14 -69 12 -93 43 -15 19 -32 34 -40 34 -7 0 -15 9 -19 20
-3 10 -21 28 -39 39 -18 11 -41 29 -51 41 -10 11 -24 20 -32 20 -8 0 4 -28 32
-72z m694 -292 c9 -10 6 -17 -13 -30 -43 -28 -66 -15 -40 22 17 25 37 28 53 8z
m139 -23 c-2 -10 -13 -19 -26 -21 -24 -4 -29 7 -10 26 18 18 40 15 36 -5z
m565 -148 c-6 -17 -25 -15 -31 3 -2 7 5 12 17 12 14 0 19 -5 14 -15z m-473
-73 c0 -13 -12 -22 -22 -16 -10 6 -1 24 13 24 5 0 9 -4 9 -8z m-1380 -1462 c0
-5 -5 -10 -11 -10 -5 0 -7 5 -4 10 3 6 8 10 11 10 2 0 4 -4 4 -10z"/>
<path d="M1218 1039 c-5 -14 13 -59 23 -59 4 0 6 14 5 32 -2 32 -20 50 -28 27z"/>
<path d="M1558 1015 c-3 -13 -2 -29 3 -36 9 -15 39 -4 39 15 0 8 2 20 5 28 4
9 -3 14 -19 16 -18 1 -25 -4 -28 -23z"/>
<path d="M1470 555 c-7 -8 -20 -15 -29 -15 -10 0 -25 -6 -35 -13 -17 -12 -17
-15 -2 -30 27 -26 92 -43 111 -27 8 7 15 19 15 26 0 8 5 14 11 14 6 0 9 10 7
23 -2 16 -9 21 -25 19 -13 -2 -23 2 -23 7 0 16 -16 13 -30 -4z"/>
<path d="M506 399 c-37 -17 -98 -35 -134 -40 -68 -10 -102 -29 -102 -59 0 -10
60 -57 158 -123 87 -60 168 -122 182 -142 l25 -34 87 -1 86 0 -13 44 c-11 37
-11 48 1 71 17 32 18 61 4 70 -15 9 -140 176 -140 186 0 18 -45 59 -64 59 -12
0 -52 -14 -90 -31z m108 -15 c9 -8 16 -19 16 -24 0 -4 32 -50 71 -102 60 -79
70 -97 65 -122 -3 -16 -6 -50 -6 -77 l0 -49 -47 0 c-43 1 -51 5 -78 39 -31 39
-61 63 -248 196 -39 28 -71 55 -71 60 -1 6 13 11 29 13 35 4 143 38 200 63 49
23 50 23 69 3z"/>
</g>
</svg>
